<svg xmlns="http://www.w3.org/2000/svg" viewBox="0 0 480.74 119.99"><defs><style>.cls-1{fill:#fff;}.cls-2{fill:none;stroke:#fff;stroke-miterlimit:10;}</style></defs><g id="레이어_2" data-name="레이어 2"><g id="레이어_1-2" data-name="레이어 1"><path class="cls-1" d="M272.59,8.86c3.6.72,6.87,4.22,4.69,9.23-2.38,5.28-10.95,5.68-17.21,8.25C253.61,29,250.48,33,249.46,37.23A14,14,0,0,0,256.4,53c8.36,4.82,18.23,2.91,22.44,2.38a88.92,88.92,0,0,0,9.73-2.11l.21-14.06-.68-.06-9.46,12.54a23.36,23.36,0,0,1-8.77,1.18c-3.54-.26-8-1.71-8.24-7.52-.13-4.16,4.43-7.19,10.82-9.37,5-1.85,15.17-3.3,16.67-13.13,1.7-11-7.42-16.44-17.49-17.36a41.85,41.85,0,0,0-18.5,2.77l-.2,13h.68l7.21-10.75A16.82,16.82,0,0,1,272.59,8.86Z"/><path class="cls-1" d="M228.57,43.57c0,4.88-1.36,7-4.63,7a13.09,13.09,0,0,1-7.61-2.24l-1.23,1.52c4,4.49,8.91,6.13,14.49,6.33,8,.27,12.38-3.82,12.31-12.67V22.12l6.26-.73V18.56H241.9l-10-11.09h-3.33V18.56H216.8v2.83l11.77.73Z"/><path class="cls-1" d="M215.92,45.48c0-8.78-8.44-11.55-16.33-12.34a65.88,65.88,0,0,0-8.71-.13V24.89c0-4.35,3.34-6.66,8.44-6.2a5,5,0,0,1,3.2,1.52l3.87,9.17a8.08,8.08,0,0,0,4.49-.73,5,5,0,0,0,2.18-5.8c-.55-2.25-3.06-4.16-4.83-4.89a31.38,31.38,0,0,0-13.33-2.31c-10.75.27-16.47,3.43-16.47,8.85V51.88l-5.64,2v1.46h16.12l1.84-4.16c3.19,2.64,7.68,5,12.24,5C210.41,56.17,215.92,52,215.92,45.48Zm-12.59-1.85c0,4-3.33,6.67-7.28,6.67A10.07,10.07,0,0,1,190.88,49V35.65a34.3,34.3,0,0,1,5.85.46C200.68,36.84,203.33,39.54,203.33,43.63Z"/><path class="cls-1" d="M154.62,43.57c0,4.88-1.36,7-4.62,7a13.12,13.12,0,0,1-7.62-2.24l-1.23,1.52c3.95,4.49,8.91,6.13,14.49,6.33,8,.27,12.38-3.82,12.32-12.67V22.12l6.25-.73V18.56H168L158,7.47h-3.34V18.56H142.85v2.83l11.77.73Z"/><path class="cls-1" d="M101.15,47.26c3.74,5.35,10.27,8.91,18.17,8.91,13,0,22-7.26,22-19.8.07-12.73-8.84-20.72-20.88-20.72-15,0-19.79,9-19.52,19.67h26.46c-.07,7.06-3.2,15-10.48,15.9-6.19.73-11-2-14.35-5Zm26.26-14.91H113.87c0-7.79,1.91-13.53,6.74-13.53C125.64,18.82,127.41,25,127.41,32.35Z"/><path class="cls-1" d="M56.39,56.17C71.22,56.3,78,49.31,78.16,36.31,78.36,24.1,70,16.05,56.8,15.65,42.51,15.26,35,23,35,34.86,35,49.38,43.26,56,56.39,56.17ZM49.31,36.31c0-8.65,1.43-17.62,7.83-17.49,6.6.13,7.41,9,6.94,18.81-.41,8.45-2,15.44-7.69,15.44C49.72,53.07,49.31,45.48,49.31,36.31Z"/><path class="cls-1" d="M14,3.18V18.56H2.85v2.83L14,22.12V52.48L7.54,53.73v1.59H33.32V53.73l-6-1.25V22.12l6.8-.73V18.56h-6.8V17.17c0-9.24-6.06-14.58-13-16.43A24.4,24.4,0,0,0,7.48,0,11.81,11.81,0,0,0,2.17,1.2C-.69,2.78-.28,5.75.88,7.87A9.32,9.32,0,0,0,6.12,12,27.56,27.56,0,0,1,14,3.18Z"/><path class="cls-1" d="M270.89,106.87c0,4.89-1.37,7-4.63,7a13.12,13.12,0,0,1-7.62-2.25l-1.22,1.52c3.94,4.49,8.91,6.14,14.49,6.34,7.95.26,12.38-3.83,12.31-12.67V85.42l6.26-.72V81.86h-6.26l-10-11.09h-3.33V81.86H259.12V84.7l11.77.72Z"/><path class="cls-1" d="M212.79,90.51v24.74l-5.65,1.92v1.45h23.13v-1.45l-4.76-1.92V90.64c0-5.48,3.2-7.79,6.94-7.52a10.44,10.44,0,0,1,7.69,4.29v27.84l-4.77,1.92v1.45H258.5v-1.45l-5.64-1.92v-45h5.44V68.13l-16.87-4.62h-1.29v20.2A21.49,21.49,0,0,0,227.69,79C218.71,78.56,212.79,83.05,212.79,90.51Z"/><path class="cls-1" d="M167.21,110.57c3.74,5.34,10.27,8.91,18.16,8.91,13,0,22-7.26,22-19.8C207.48,86.94,198.57,79,186.53,79c-15,0-19.8,9-19.52,19.66h26.46c-.07,7.07-3.2,15-10.48,15.91-6.19.72-11-2-14.35-5Zm26.26-14.92H179.93c0-7.78,1.9-13.53,6.73-13.53C191.7,82.12,193.47,88.26,193.47,95.65Z"/><path class="cls-1" d="M110.75,115.85,115,103.51h16.53l4.08,11.88-7.07,1.78v1.45h16.12v-1.45l-4.83-1.78L123.4,69.59H113.06L96,115.85l-4.62,1.32v1.45h24.49v-1.45ZM123.26,80l7.21,20.65H115.92l7-20.65Z"/><path class="cls-1" d="M72.1,87v28.11l-6,2v1.45H89.65v-1.45l-4.76-1.85V85.82h5.44V83.71L76,79.75h-2L72.51,84c-2.58-2.83-5.65-5.14-9.52-5.34-3.27-.27-4.63,2.51-4.76,5a9.35,9.35,0,0,0,2.24,6.33A20.53,20.53,0,0,1,72.1,87Z"/><path class="cls-1" d="M37.41,106.87c0,4.89-1.36,7-4.63,7a13.12,13.12,0,0,1-7.62-2.25l-1.22,1.52c3.94,4.49,8.91,6.14,14.49,6.34,8,.26,12.38-3.83,12.31-12.67V85.42L57,84.7V81.86H50.74l-10-11.09H37.41V81.86H25.64V84.7l11.77.72Z"/><path class="cls-2" d="M447.62,4.76H438V57.24h9.67V35.8l2.21,1.72v7a13,13,0,0,0,12.94,12.94h4.53a13,13,0,0,0,12.94-12.94V18.05a12.47,12.47,0,0,0-3.8-9.15,12.6,12.6,0,0,0-9.14-3.76h-4.53a12.91,12.91,0,0,0-12.94,12.91V21.7l-2.21-1.76Zm11.84,8.57a5.56,5.56,0,1,1,11.11,0V49.19A5.31,5.31,0,0,1,469,53.1a5.53,5.53,0,0,1-7.88,0,5.32,5.32,0,0,1-1.62-3.91Zm-11.84,19V23.46l2.21,1.72V34ZM437.17,4.76h-9.66V57.24h9.66Z"/><path class="cls-2" d="M424.1,22H372.52v2.77H393l2.29,7.84H376.92V45h31.14l2.85,9.74h-34l.84,2.78H421V54.64L417.35,42.2H386.62V35.34h34.63l-.81-2.78H405.36l-2.29-7.84H424.9Zm-15.16-1.83h9.71V4.76h-9.71v.52l-35,14.84h7.13L408.94,8.31Z"/><path class="cls-2" d="M327.38,4.79h-9.74v52.7h51.68l-.81-2.78H327.38Zm33.68,24.05a13.62,13.62,0,0,0,4.11-10,13.62,13.62,0,0,0-4.11-10,13.52,13.52,0,0,0-10-4.14h-6.61a13.59,13.59,0,0,0-10,4.14,13.62,13.62,0,0,0-4.11,10A14.1,14.1,0,0,0,344.47,33h6.61A13.65,13.65,0,0,0,361.06,28.84Zm-5.62-6.33a7.29,7.29,0,0,1-2.25,5.41,7.64,7.64,0,0,1-10.83,0,7.4,7.4,0,0,1-2.25-5.41V15.2a7.66,7.66,0,0,1,13.08-5.42,7.39,7.39,0,0,1,2.25,5.42Z"/><path class="cls-2" d="M403.11,69.57h18.14l-.81-2.78H393.05v2.88l6.89,23.56H410ZM374.56,98.05a11.49,11.49,0,0,0-3.44,8.36v1.23a11.51,11.51,0,0,0,3.44,8.37,11.37,11.37,0,0,0,8.33,3.48h20.64a11.24,11.24,0,0,0,8.33-3.48,11.37,11.37,0,0,0,3.45-8.37v-1.23a11.35,11.35,0,0,0-3.45-8.36,11.21,11.21,0,0,0-8.33-3.49H382.89A11.34,11.34,0,0,0,374.56,98.05Zm9,15.78a9.15,9.15,0,0,1-2.82-6.78,9.61,9.61,0,0,1,9.57-9.64h5.73a9.23,9.23,0,0,1,6.78,2.81,9.33,9.33,0,0,1,2.78,6.83,9.23,9.23,0,0,1-2.78,6.78,9.08,9.08,0,0,1-6.78,2.81h-5.73A9.06,9.06,0,0,1,383.6,113.83ZM371,66.76V93.09h9.59V79.73l16.6,12.9-1.34-4.53L380.57,76.21V71.12L394.18,81.7l-1.3-4.54L380.57,67.6v-.84Z"/><path class="cls-2" d="M345.91,87.57l-16.45,31.92h3l14.8-28.58,11.5,28.58h10L349,69.81h19.61l-.8-2.74H333v2.74h5.84v.07ZM326.68,66.76h-9.6v52.73h9.6Z"/></g></g></svg>