<svg xmlns="http://www.w3.org/2000/svg" viewBox="0 0 480.62 120.24"><defs><style>.cls-1{fill:none;stroke:#fff;stroke-miterlimit:10;stroke-width:0.75px;}.cls-2{fill:#fff;}</style></defs><g id="레이어_2" data-name="레이어 2"><g id="레이어_1-2" data-name="레이어 1"><path class="cls-1" d="M207.65,9.23c-3.6.73-6.87,4.22-4.69,9.24,2.38,5.28,10.95,5.67,17.21,8.25,6.46,2.64,9.59,6.66,10.61,10.89a14,14,0,0,1-6.94,15.77c-8.36,4.82-18.23,2.9-22.44,2.38a90.45,90.45,0,0,1-9.73-2.12l-.2-14,.68-.07,9.45,12.54a23.4,23.4,0,0,0,8.78,1.19c3.53-.27,8-1.72,8.23-7.53.13-4.15-4.42-7.19-10.82-9.37-5-1.84-15.17-3.3-16.67-13.13-1.7-11,7.42-16.43,17.49-17.36a41.94,41.94,0,0,1,18.5,2.78l.2,13h-.68l-7.21-10.76A16.82,16.82,0,0,0,207.65,9.23Z"/><path class="cls-1" d="M251.67,43.94c0,4.89,1.36,7,4.63,7a13.12,13.12,0,0,0,7.62-2.25l1.22,1.52c-3.95,4.49-8.91,6.14-14.49,6.34-8,.26-12.38-3.83-12.31-12.67V22.5l-6.26-.73V18.93h6.26l10-11.09h3.33V18.93h11.77v2.84l-11.77.73Z"/><path class="cls-1" d="M264.33,45.86c0-8.78,8.43-11.55,16.32-12.34a64.3,64.3,0,0,1,8.71-.14V25.27c0-4.36-3.34-6.67-8.44-6.21a5,5,0,0,0-3.19,1.52l-3.88,9.17a8.07,8.07,0,0,1-4.49-.72,5,5,0,0,1-2.18-5.81c.55-2.24,3.06-4.16,4.83-4.88A31.41,31.41,0,0,1,285.34,16c10.75.26,16.47,3.43,16.47,8.84V52.26l5.64,2v1.45H291.33l-1.84-4.16c-3.19,2.64-7.68,5-12.24,5C269.83,56.55,264.33,52.39,264.33,45.86ZM276.91,44c0,4,3.33,6.66,7.28,6.66a10,10,0,0,0,5.17-1.32V36a34.3,34.3,0,0,0-5.85.47C279.56,37.21,276.91,39.92,276.91,44Z"/><path class="cls-1" d="M325.62,43.94c0,4.89,1.36,7,4.62,7a13.12,13.12,0,0,0,7.62-2.25l1.23,1.52c-3.95,4.49-8.91,6.14-14.49,6.34-8,.26-12.38-3.83-12.31-12.67V22.5L306,21.77V18.93h6.26l10-11.09h3.33V18.93h11.77v2.84l-11.77.73Z"/><path class="cls-1" d="M379.09,47.64c-3.74,5.34-10.27,8.91-18.17,8.91-13,0-22-7.26-22-19.8C338.82,24,347.73,16,359.77,16c15,0,19.79,9,19.52,19.66H352.83c.07,7.06,3.2,15.05,10.48,15.91,6.19.72,11-2.05,14.35-5ZM352.83,32.72h13.54c0-7.78-1.91-13.52-6.74-13.52C354.6,19.2,352.83,25.33,352.83,32.72Z"/><path class="cls-1" d="M423.85,56.55c-14.83.13-21.56-6.87-21.77-19.87-.2-12.2,8.17-20.26,21.36-20.65,14.29-.4,21.77,7.32,21.77,19.2C445.21,49.75,437,56.42,423.85,56.55Zm7.08-19.87c0-8.64-1.43-17.62-7.83-17.48-6.6.13-7.41,9-6.93,18.8.4,8.45,2,15.45,7.68,15.45C430.52,53.45,430.93,45.86,430.93,36.68Z"/><path class="cls-1" d="M466.23,3.55V18.93h11.16v2.84l-11.16.73V52.85l6.47,1.26v1.58H446.92V54.11l6-1.26V22.5l-6.8-.73V18.93h6.8V17.55c0-9.24,6.06-14.59,13-16.44a24.39,24.39,0,0,1,6.87-.72,11.68,11.68,0,0,1,5.31,1.19c2.86,1.58,2.45,4.55,1.29,6.66a9.34,9.34,0,0,1-5.24,4.16A27.6,27.6,0,0,0,466.23,3.55Z"/><path class="cls-1" d="M209.36,107.25c0,4.88,1.36,7,4.62,7A13.12,13.12,0,0,0,221.6,112l1.22,1.52c-3.94,4.48-8.91,6.14-14.49,6.33-8,.27-12.38-3.82-12.31-12.67V85.8l-6.26-.73V82.24H196l10-11.09h3.34V82.24h11.76v2.83l-11.76.73Z"/><path class="cls-1" d="M267.45,90.88v24.75l5.65,1.91V119H250v-1.46l4.76-1.91V91c0-5.47-3.2-7.78-6.94-7.52a10.51,10.51,0,0,0-7.69,4.29v27.85l4.77,1.91V119H221.74v-1.46l5.64-1.91v-45h-5.44V68.51l16.87-4.62h1.29V84.08a21.56,21.56,0,0,1,12.45-4.75C261.53,78.94,267.45,83.42,267.45,90.88Z"/><path class="cls-1" d="M313,110.94c-3.74,5.35-10.27,8.91-18.16,8.91-13,0-22-7.26-22-19.8-.07-12.73,8.84-20.72,20.88-20.72,15,0,19.8,9,19.53,19.67H286.77c.07,7.06,3.2,15,10.48,15.9,6.19.73,11-2,14.35-5ZM286.77,96h13.54c0-7.79-1.9-13.53-6.73-13.53C288.54,82.5,286.77,88.64,286.77,96Z"/><path class="cls-1" d="M369.5,116.22l-4.22-12.34H348.75l-4.08,11.88,7.07,1.78V119H335.62v-1.46l4.83-1.78L356.84,70h10.34l17.08,46.26,4.62,1.32V119H364.39v-1.46ZM357,80.32,349.77,101h14.56l-7-20.66Z"/><path class="cls-1" d="M408.14,87.38V115.5l6,2V119H390.59v-1.46l4.76-1.84V86.2h-5.44V84.08l14.35-4h2l1.43,4.23c2.58-2.84,5.65-5.15,9.52-5.35,3.27-.26,4.63,2.51,4.76,5a9.38,9.38,0,0,1-2.24,6.34C416.17,87.91,411.81,87.32,408.14,87.38Z"/><path class="cls-1" d="M442.83,107.25c0,4.88,1.36,7,4.63,7a13.12,13.12,0,0,0,7.62-2.24l1.22,1.52c-3.94,4.48-8.91,6.14-14.49,6.33-8,.27-12.38-3.82-12.31-12.67V85.8l-6.26-.73V82.24h6.26l10-11.09h3.33V82.24H454.6v2.83l-11.77.73Z"/><path class="cls-2" d="M32.62,5.13h9.67V57.62H32.62V36.17L30.41,37.9v7a12.44,12.44,0,0,1-3.8,9.14,12.48,12.48,0,0,1-9.14,3.8H12.94a12.48,12.48,0,0,1-9.14-3.8A12.44,12.44,0,0,1,0,44.93V18.42A12.48,12.48,0,0,1,3.8,9.28a12.56,12.56,0,0,1,9.14-3.76h4.53a12.56,12.56,0,0,1,9.14,3.76,12.48,12.48,0,0,1,3.8,9.14v3.66l2.21-1.76ZM20.78,13.71a5.53,5.53,0,0,0-5.56-5.56,5.53,5.53,0,0,0-5.55,5.56V49.57a5.31,5.31,0,0,0,1.62,3.9,5.52,5.52,0,0,0,7.87,0,5.31,5.31,0,0,0,1.62-3.9Zm11.84,19V23.83l-2.21,1.73v8.86ZM43.07,5.13h9.66V57.62H43.07Z"/><path class="cls-2" d="M56.14,22.32h51.58V25.1H87.26L85,32.94h18.35V45.35H72.18l-2.85,9.74h34l-.84,2.78H59.27V55l3.62-12.45H93.62V35.72H59l.81-2.78H74.88l2.29-7.84H55.34ZM71.3,20.49H61.59V5.13H71.3v.53l35,14.83H99.18L71.3,8.68Z"/><path class="cls-2" d="M152.86,5.17h9.74v52.7H110.92l.81-2.78h41.13Zm-33.68,24a13.61,13.61,0,0,1-4.11-10,13.59,13.59,0,0,1,4.11-10,13.49,13.49,0,0,1,10-4.15h6.61a13.56,13.56,0,0,1,10,4.15,13.59,13.59,0,0,1,4.11,10,13.61,13.61,0,0,1-4.11,10,13.68,13.68,0,0,1-10,4.15h-6.61A13.61,13.61,0,0,1,119.18,29.21Zm5.62-6.33a7.66,7.66,0,0,0,13.08,5.42,7.44,7.44,0,0,0,2.25-5.42V15.57a7.66,7.66,0,0,0-13.08-5.41,7.35,7.35,0,0,0-2.25,5.41Z"/><path class="cls-2" d="M77.13,69.94H59l.81-2.77H87.19v2.88L80.3,93.6H70.21Zm28.55,28.48a11.51,11.51,0,0,1,3.44,8.37V108a11.49,11.49,0,0,1-3.44,8.36,11.34,11.34,0,0,1-8.33,3.49H76.71a11.21,11.21,0,0,1-8.33-3.49A11.35,11.35,0,0,1,64.93,108v-1.23a11.37,11.37,0,0,1,3.45-8.37,11.24,11.24,0,0,1,8.33-3.48H97.35A11.37,11.37,0,0,1,105.68,98.42Zm-9,15.79a9.62,9.62,0,0,0-6.75-16.42H84.16a9.23,9.23,0,0,0-6.78,2.81,9.72,9.72,0,0,0,0,13.61A9.12,9.12,0,0,0,84.16,117h5.73A9.1,9.1,0,0,0,96.64,114.21Zm12.63-47.08V93.46h-9.6V80.1L83.07,93l1.34-4.54L99.67,76.59v-5.1L86.06,82.07l1.3-4.53L99.67,68v-.84Z"/><path class="cls-2" d="M134.33,87.94l16.46,31.93h-3L133,91.28l-11.5,28.59h-10L131.2,70.19H111.59l.8-2.74h34.88v2.74h-5.84v.07Zm19.23-20.81h9.6v52.74h-9.6Z"/></g></g></svg>