<svg xmlns="http://www.w3.org/2000/svg" viewBox="0 0 480.62 119.87"><defs><style>.cls-1{fill:#fff;}.cls-2{fill:none;stroke:#fff;stroke-miterlimit:10;stroke-width:0.75px;}</style></defs><g id="레이어_2" data-name="레이어 2"><g id="레이어_1-2" data-name="레이어 1"><path class="cls-1" d="M208,8.86c-3.61.72-6.87,4.22-4.69,9.23,2.38,5.28,10.95,5.68,17.21,8.25C227,29,230.14,33,231.16,37.23A14.05,14.05,0,0,1,224.22,53c-8.37,4.81-18.23,2.9-22.45,2.37A89.53,89.53,0,0,1,192,53.27l-.2-14.06.68-.06L202,51.69a23.34,23.34,0,0,0,8.77,1.18c3.54-.26,8-1.71,8.23-7.52.14-4.16-4.42-7.19-10.81-9.37-5-1.85-15.17-3.3-16.67-13.13-1.7-11,7.42-16.44,17.48-17.36a41.85,41.85,0,0,1,18.5,2.77l.21,13H227L219.8,10.51A16.82,16.82,0,0,0,208,8.86Z"/><path class="cls-1" d="M252.05,43.57c0,4.88,1.36,7,4.62,7a13.12,13.12,0,0,0,7.62-2.24l1.22,1.52C261.57,54.33,256.6,56,251,56.17c-8,.27-12.39-3.82-12.32-12.67V22.12l-6.26-.73V18.56h6.26l10-11.09h3.34V18.56h11.76v2.83l-11.76.73Z"/><path class="cls-1" d="M264.7,45.48c0-8.78,8.44-11.55,16.33-12.34a65.71,65.71,0,0,1,8.7-.13V24.89c0-4.35-3.33-6.66-8.43-6.2a5,5,0,0,0-3.2,1.52l-3.88,9.17a8.09,8.09,0,0,1-4.49-.73,5,5,0,0,1-2.17-5.8c.54-2.25,3.06-4.16,4.83-4.89a31.36,31.36,0,0,1,13.33-2.31c10.75.27,16.46,3.43,16.46,8.85V51.88l5.65,2v1.46H291.71l-1.84-4.16c-3.2,2.64-7.69,5-12.24,5C270.21,56.17,264.7,52,264.7,45.48Zm12.58-1.85c0,4,3.34,6.67,7.28,6.67A9.92,9.92,0,0,0,289.73,49V35.65a34.46,34.46,0,0,0-5.85.46C279.94,36.84,277.28,39.54,277.28,43.63Z"/><path class="cls-1" d="M326,43.57c0,4.88,1.36,7,4.63,7a13.12,13.12,0,0,0,7.62-2.24l1.22,1.52c-3.94,4.49-8.91,6.14-14.49,6.33-8,.27-12.38-3.82-12.31-12.67V22.12l-6.26-.73V18.56h6.26l10-11.09H326V18.56h11.77v2.83L326,22.12Z"/><path class="cls-1" d="M379.46,47.26c-3.74,5.35-10.27,8.91-18.16,8.91-13,0-22-7.26-22-19.8-.07-12.73,8.84-20.72,20.88-20.72,15,0,19.8,9,19.53,19.67H353.21c.06,7.06,3.19,15,10.47,15.9,6.19.73,11-2,14.35-5ZM353.21,32.35h13.53c0-7.79-1.9-13.53-6.73-13.53C355,18.82,353.21,25,353.21,32.35Z"/><path class="cls-1" d="M424.23,56.17c-14.83.14-21.57-6.86-21.77-19.86-.2-12.21,8.16-20.26,21.36-20.66,14.28-.39,21.77,7.33,21.77,19.21C445.59,49.38,437.36,56,424.23,56.17Zm7.07-19.86c0-8.65-1.43-17.62-7.82-17.49-6.6.13-7.42,9-6.94,18.81.41,8.45,2,15.44,7.69,15.44C430.89,53.07,431.3,45.48,431.3,36.31Z"/><path class="cls-1" d="M466.61,3.18V18.56h11.16v2.83l-11.16.73V52.48l6.46,1.25v1.59H447.29V53.73l6-1.25V22.12l-6.8-.73V18.56h6.8V17.17c0-9.24,6.05-14.58,13-16.43A24.36,24.36,0,0,1,473.14,0a11.85,11.85,0,0,1,5.31,1.19c2.85,1.58,2.45,4.55,1.29,6.67A9.38,9.38,0,0,1,474.5,12,27.56,27.56,0,0,0,466.61,3.18Z"/><path class="cls-1" d="M209.73,106.87c0,4.89,1.36,7,4.63,7a13.12,13.12,0,0,0,7.62-2.25l1.22,1.52c-3.95,4.49-8.91,6.14-14.49,6.34-8,.26-12.38-3.83-12.31-12.67V85.43l-6.26-.73V81.86h6.26l10-11.09h3.33V81.86H221.5V84.7l-11.77.73Z"/><path class="cls-1" d="M267.83,90.51v24.74l5.64,1.92v1.45H250.34v-1.45l4.77-1.92V90.64c0-5.48-3.2-7.79-6.94-7.52a10.44,10.44,0,0,0-7.69,4.29v27.84l4.76,1.92v1.45H222.11v-1.45l5.65-1.92v-45h-5.44V68.13l16.87-4.61h1.29V83.71A21.49,21.49,0,0,1,252.93,79C261.91,78.56,267.83,83.05,267.83,90.51Z"/><path class="cls-1" d="M313.41,110.57c-3.74,5.34-10.27,8.91-18.17,8.91-13,0-22-7.26-22-19.8C273.14,86.94,282.05,79,294.09,79c15,0,19.79,9,19.52,19.66H287.15c.07,7.07,3.2,15,10.47,15.91,6.19.72,11-2,14.36-5ZM287.15,95.65h13.54c0-7.78-1.91-13.52-6.74-13.52C288.92,82.13,287.15,88.26,287.15,95.65Z"/><path class="cls-1" d="M369.87,115.85l-4.22-12.34H349.12L345,115.39l7.08,1.78v1.45H336v-1.45l4.83-1.78,16.4-45.8h10.34l17.07,46.26,4.63,1.32v1.45H364.77v-1.45ZM357.35,80l-7.21,20.65H364.7l-7-20.65Z"/><path class="cls-1" d="M408.51,87v28.11l6,2v1.45H391v-1.45l4.77-1.85V85.82h-5.45V83.71l14.36-4h2L408.1,84c2.59-2.83,5.65-5.14,9.53-5.34,3.26-.27,4.62,2.51,4.76,5a9.35,9.35,0,0,1-2.24,6.33A20.54,20.54,0,0,0,408.51,87Z"/><path class="cls-1" d="M443.21,106.87c0,4.89,1.36,7,4.62,7a13.1,13.1,0,0,0,7.62-2.25l1.23,1.52c-3.95,4.49-8.91,6.14-14.49,6.34-8,.26-12.38-3.83-12.31-12.67V85.43l-6.26-.73V81.86h6.26l10-11.09h3.33V81.86H455V84.7l-11.77.73Z"/><path class="cls-2" d="M33,4.76h9.67V57.24H33V35.8l-2.21,1.72v7A12.42,12.42,0,0,1,27,53.69a12.48,12.48,0,0,1-9.14,3.8H13.31a12.48,12.48,0,0,1-9.14-3.8A12.41,12.41,0,0,1,.38,44.55V18.05A12.5,12.5,0,0,1,4.17,8.9a12.6,12.6,0,0,1,9.14-3.76h4.54A12.6,12.6,0,0,1,27,8.9a12.51,12.51,0,0,1,3.8,9.15V21.7L33,19.94ZM21.15,13.33A5.51,5.51,0,0,0,15.6,7.78,5.53,5.53,0,0,0,10,13.33V49.19a5.32,5.32,0,0,0,1.62,3.91,5.53,5.53,0,0,0,7.88,0,5.35,5.35,0,0,0,1.61-3.91ZM33,32.32V23.46l-2.21,1.72V34ZM43.44,4.76h9.67V57.24H43.44Z"/><path class="cls-2" d="M56.52,22h51.57v2.77H87.63l-2.28,7.84H103.7V45H72.55L69.7,54.71h34l-.84,2.78H59.65V54.64L63.27,42.2H94V35.34H59.37l.81-2.78H75.26l2.28-7.84H55.71Zm15.15-1.83H62V4.76h9.7v.52l35,14.84H99.55L71.67,8.31Z"/><path class="cls-2" d="M153.23,4.79H163v52.7H111.29l.81-2.78h41.13ZM119.55,28.84a13.62,13.62,0,0,1-4.11-10,13.62,13.62,0,0,1,4.11-10,13.56,13.56,0,0,1,10-4.14h6.61a13.57,13.57,0,0,1,10,4.14,13.59,13.59,0,0,1,4.12,10,13.59,13.59,0,0,1-4.12,10,13.69,13.69,0,0,1-10,4.15h-6.61A13.68,13.68,0,0,1,119.55,28.84Zm5.63-6.33a7.29,7.29,0,0,0,2.25,5.41,7.64,7.64,0,0,0,10.83,0,7.44,7.44,0,0,0,2.25-5.41V15.2a7.68,7.68,0,0,0-7.67-7.67,7.68,7.68,0,0,0-7.66,7.67Z"/><path class="cls-2" d="M77.51,69.57H59.37l.81-2.78H87.56v2.88L80.67,93.23H70.58Zm28.54,28.48a11.46,11.46,0,0,1,3.45,8.36v1.23a11.48,11.48,0,0,1-3.45,8.37,11.35,11.35,0,0,1-8.33,3.48H77.09a11.81,11.81,0,0,1-11.78-11.85v-1.23A11.83,11.83,0,0,1,77.09,94.56H97.72A11.33,11.33,0,0,1,106.05,98.05Zm-9,15.78a9.14,9.14,0,0,0,2.81-6.78,9.59,9.59,0,0,0-9.56-9.64H84.54a9.65,9.65,0,0,0-6.79,16.42,9.12,9.12,0,0,0,6.79,2.81h5.73A9.06,9.06,0,0,0,97,113.83Zm12.62-47.07V93.09H100V79.73L83.45,92.63l1.34-4.53L100,76.21V71.12L86.44,81.7l1.3-4.54L100,67.6v-.84Z"/><path class="cls-2" d="M134.71,87.57l16.45,31.92h-3l-14.8-28.58-11.5,28.58h-10l19.76-49.68H112l.81-2.74h34.87v2.74h-5.83v.07Zm19.23-20.81h9.6v52.73h-9.6Z"/></g></g></svg>