<svg xmlns="http://www.w3.org/2000/svg" viewBox="0 0 480.62 120.24"><defs><style>.cls-1{fill:none;stroke:#fff;stroke-miterlimit:10;stroke-width:0.75px;}.cls-2{fill:#fff;}</style></defs><g id="레이어_2" data-name="레이어 2"><g id="레이어_1-2" data-name="레이어 1"><path class="cls-1" d="M273,9.23c3.61.73,6.87,4.22,4.69,9.24-2.38,5.28-10.95,5.67-17.21,8.25-6.46,2.64-9.59,6.66-10.61,10.89a14,14,0,0,0,6.94,15.77c8.37,4.82,18.23,2.9,22.45,2.38A91.09,91.09,0,0,0,289,53.64l.2-14-.68-.07L279,52.06a23.42,23.42,0,0,1-8.78,1.19c-3.54-.27-8-1.72-8.23-7.53-.14-4.15,4.42-7.19,10.81-9.37,5-1.84,15.17-3.3,16.67-13.13,1.7-11-7.41-16.43-17.48-17.36a41.94,41.94,0,0,0-18.5,2.78l-.21,13H254l7.21-10.76A16.82,16.82,0,0,1,273,9.23Z"/><path class="cls-1" d="M229,43.94c0,4.89-1.37,7-4.63,7a13.12,13.12,0,0,1-7.62-2.25l-1.22,1.52c3.94,4.49,8.91,6.14,14.49,6.34,7.95.26,12.38-3.83,12.31-12.67V22.5l6.26-.73V18.93h-6.26l-10-11.09H229V18.93H217.18v2.84L229,22.5Z"/><path class="cls-1" d="M216.29,45.86c0-8.78-8.43-11.55-16.32-12.34a64.3,64.3,0,0,0-8.71-.14V25.27c0-4.36,3.33-6.67,8.43-6.21a5.07,5.07,0,0,1,3.2,1.52l3.88,9.17a8.09,8.09,0,0,0,4.49-.72,5,5,0,0,0,2.17-5.81c-.54-2.24-3.06-4.16-4.83-4.88A31.36,31.36,0,0,0,195.27,16c-10.75.26-16.46,3.43-16.46,8.84V52.26l-5.65,2v1.45h16.13l1.83-4.16c3.2,2.64,7.69,5,12.25,5C210.78,56.55,216.29,52.39,216.29,45.86ZM203.71,44c0,4-3.34,6.66-7.28,6.66a9.92,9.92,0,0,1-5.17-1.32V36a34.46,34.46,0,0,1,5.85.47C201.05,37.21,203.71,39.92,203.71,44Z"/><path class="cls-1" d="M155,43.94c0,4.89-1.36,7-4.63,7a13.12,13.12,0,0,1-7.62-2.25l-1.22,1.52c3.94,4.49,8.91,6.14,14.49,6.34,8,.26,12.38-3.83,12.31-12.67V22.5l6.26-.73V18.93h-6.26l-10-11.09H155V18.93H143.23v2.84L155,22.5Z"/><path class="cls-1" d="M101.53,47.64c3.74,5.34,10.27,8.91,18.16,8.91,13,0,22-7.26,22-19.8C141.8,24,132.89,16,120.85,16c-15,0-19.8,9-19.53,19.66h26.47c-.07,7.06-3.2,15.05-10.48,15.91-6.19.72-11-2.05-14.35-5Zm26.26-14.92H114.25c0-7.78,1.9-13.52,6.73-13.52C126,19.2,127.79,25.33,127.79,32.72Z"/><path class="cls-1" d="M56.76,56.55c14.83.13,21.57-6.87,21.77-19.87.21-12.2-8.16-20.26-21.36-20.65-14.28-.4-21.77,7.32-21.77,19.2C35.4,49.75,43.64,56.42,56.76,56.55ZM49.69,36.68c0-8.64,1.43-17.62,7.82-17.48,6.6.13,7.42,9,6.94,18.8-.41,8.45-2,15.45-7.69,15.45C50.1,53.45,49.69,45.86,49.69,36.68Z"/><path class="cls-1" d="M14.38,3.55V18.93H3.23v2.84l11.15.73V52.85L7.92,54.11v1.58H33.7V54.11l-6-1.26V22.5l6.81-.73V18.93H27.71V17.55c0-9.24-6.05-14.59-13-16.44A24.35,24.35,0,0,0,7.85.39a11.64,11.64,0,0,0-5.3,1.19C-.31,3.16.1,6.13,1.25,8.24A9.4,9.4,0,0,0,6.49,12.4,27.6,27.6,0,0,1,14.38,3.55Z"/><path class="cls-1" d="M271.26,107.25c0,4.88-1.36,7-4.63,7A13.07,13.07,0,0,1,259,112l-1.23,1.52c3.95,4.48,8.91,6.14,14.49,6.33,8,.27,12.38-3.82,12.31-12.67V85.8l6.26-.73V82.24h-6.26l-10-11.09h-3.33V82.24H259.49v2.83l11.77.73Z"/><path class="cls-1" d="M213.17,90.88v24.75l-5.65,1.91V119h23.13v-1.46l-4.76-1.91V91c0-5.47,3.19-7.78,6.93-7.52a10.49,10.49,0,0,1,7.69,4.29v27.85l-4.76,1.91V119h23.13v-1.46l-5.65-1.91v-45h5.44V68.51L241.8,63.89h-1.29V84.08a21.53,21.53,0,0,0-12.45-4.75C219.08,78.94,213.17,83.42,213.17,90.88Z"/><path class="cls-1" d="M167.58,110.94c3.75,5.35,10.28,8.91,18.17,8.91,13,0,22-7.26,22-19.8.06-12.73-8.85-20.72-20.89-20.72-15,0-19.79,9-19.52,19.67h26.46c-.07,7.06-3.2,15-10.47,15.9-6.19.73-11-2-14.36-5ZM193.84,96H180.31c0-7.79,1.9-13.53,6.73-13.53C192.07,82.5,193.84,88.64,193.84,96Z"/><path class="cls-1" d="M111.12,116.22l4.22-12.34h16.53L136,115.76l-7.08,1.78V119H145v-1.46l-4.83-1.78L123.77,70H113.43L96.36,116.22l-4.63,1.32V119h24.49v-1.46Zm12.52-35.9L130.85,101H116.29l7-20.66Z"/><path class="cls-1" d="M72.48,87.38V115.5l-6,2V119H90v-1.46l-4.76-1.84V86.2h5.44V84.08l-14.36-4h-2l-1.42,4.23C70.3,81.51,67.24,79.2,63.36,79c-3.26-.26-4.62,2.51-4.76,5a9.33,9.33,0,0,0,2.25,6.34C64.45,87.91,68.8,87.32,72.48,87.38Z"/><path class="cls-1" d="M37.78,107.25c0,4.88-1.36,7-4.62,7A13.12,13.12,0,0,1,25.54,112l-1.23,1.52c4,4.48,8.92,6.14,14.49,6.33,8,.27,12.38-3.82,12.32-12.67V85.8l6.25-.73V82.24H51.12l-10-11.09H37.78V82.24H26v2.83l11.76.73Z"/><path class="cls-2" d="M448,5.13h-9.67V57.62H448V36.17l2.22,1.73v7a13,13,0,0,0,12.93,12.94h4.54a13,13,0,0,0,12.94-12.94V18.42a12.91,12.91,0,0,0-12.94-12.9h-4.54a12.89,12.89,0,0,0-12.93,12.9v3.66L448,20.32Zm11.85,8.58a5.56,5.56,0,1,1,11.11,0V49.57a5.56,5.56,0,0,1-11.11,0ZM448,32.69V23.83l2.22,1.73v8.86ZM437.55,5.13h-9.67V57.62h9.67Z"/><path class="cls-2" d="M424.47,22.32H372.9V25.1h20.46l2.28,7.84H377.29V45.35h31.15l2.85,9.74h-34l.85,2.78h43.2V55l-3.62-12.45H387V35.72h34.63l-.81-2.78H405.73l-2.28-7.84h21.83Zm-15.15-1.83H419V5.13h-9.7v.53l-35,14.83h7.14L409.32,8.68Z"/><path class="cls-2" d="M327.76,5.17H318v52.7H369.7l-.81-2.78H327.76Zm33.68,24a13.61,13.61,0,0,0,4.11-10,13.59,13.59,0,0,0-4.11-10,13.53,13.53,0,0,0-10-4.15h-6.61a13.56,13.56,0,0,0-10,4.15,13.6,13.6,0,0,0-4.12,10,13.62,13.62,0,0,0,4.12,10,13.67,13.67,0,0,0,10,4.15h6.61A13.65,13.65,0,0,0,361.44,29.21Zm-5.63-6.33a7.32,7.32,0,0,1-2.25,5.42,7.64,7.64,0,0,1-10.83,0,7.48,7.48,0,0,1-2.25-5.42V15.57a7.68,7.68,0,0,1,7.67-7.66,7.68,7.68,0,0,1,7.66,7.66Z"/><path class="cls-2" d="M403.48,69.94h18.14l-.81-2.77H393.43v2.88l6.89,23.55h10.09ZM374.94,98.42a11.48,11.48,0,0,0-3.45,8.37V108a11.46,11.46,0,0,0,3.45,8.36,11.33,11.33,0,0,0,8.33,3.49H403.9A11.83,11.83,0,0,0,415.68,108v-1.23A11.81,11.81,0,0,0,403.9,94.94H383.27A11.35,11.35,0,0,0,374.94,98.42Zm9,15.79a9.62,9.62,0,0,1,6.75-16.42h5.73a9.65,9.65,0,0,1,6.79,16.42,9.16,9.16,0,0,1-6.79,2.81h-5.73A9.1,9.1,0,0,1,384,114.21ZM371.35,67.13V93.46H381V80.1L397.54,93l-1.33-4.54L381,76.59v-5.1l13.6,10.58-1.3-4.53L381,68v-.84Z"/><path class="cls-2" d="M346.28,87.94l-16.45,31.93h3l14.8-28.59,11.5,28.59h10L349.41,70.19H369l-.81-2.74H333.35v2.74h5.83v.07ZM327.05,67.13h-9.59v52.74h9.59Z"/></g></g></svg>