<?xml version="1.0" standalone="no"?>
<!DOCTYPE svg PUBLIC "-//W3C//DTD SVG 20010904//EN"
 "http://www.w3.org/TR/2001/REC-SVG-20010904/DTD/svg10.dtd">
<svg version="1.0" xmlns="http://www.w3.org/2000/svg"
 width="512.000000pt" height="512.000000pt" viewBox="0 0 512.000000 512.000000"
 preserveAspectRatio="xMidYMid meet">

<g transform="translate(0.000000,512.000000) scale(0.100000,-0.100000)"
fill="#000000" stroke="none">
<path d="M1 3888 c1 -1050 3 -1216 14 -1118 60 549 286 1052 654 1453 452 494
1054 783 1724 827 945 62 1831 -391 2337 -1195 207 -328 332 -689 375 -1085
11 -98 13 68 14 1118 l1 1232 -2560 0 -2560 0 1 -1232z"/>
<path d="M1239 4002 c-20 -2 -29 -12 -42 -50 -70 -201 -80 -405 -28 -573 l20
-62 -45 -55 c-102 -126 -171 -278 -200 -445 -18 -103 -15 -383 5 -492 66 -352
202 -583 431 -731 175 -113 363 -177 627 -215 l82 -11 -39 -49 c-50 -64 -87
-142 -106 -228 -15 -67 -17 -69 -58 -85 -84 -32 -188 -48 -291 -44 -90 3 -107
7 -169 38 -87 43 -158 112 -230 222 -105 161 -252 264 -393 274 -73 5 -115 -8
-121 -38 -4 -22 51 -82 117 -128 97 -66 169 -158 232 -297 69 -153 83 -176
136 -229 67 -68 173 -120 278 -139 130 -22 289 -28 386 -13 l86 14 7 -243 c6
-226 6 -246 -12 -286 -24 -54 -75 -82 -133 -73 -62 10 -262 91 -403 164 -231
119 -423 259 -611 447 -441 440 -702 990 -754 1590 -5 63 -9 -337 -10 -1082
l-1 -1183 2560 0 2560 0 -1 1188 c-1 743 -5 1148 -10 1082 -26 -314 -108 -610
-249 -895 -285 -578 -778 -1034 -1363 -1259 -146 -57 -183 -63 -229 -42 -67
32 -67 31 -72 521 -3 366 -6 451 -20 503 -21 84 -59 161 -106 221 l-39 49 87
12 c379 52 678 201 843 418 96 126 178 334 210 532 21 127 18 455 -4 544 -37
145 -103 280 -192 389 l-44 54 21 64 c15 47 22 100 26 195 5 141 -7 226 -50
351 -20 58 -27 68 -53 75 -91 24 -349 -69 -575 -206 l-95 -58 -55 10 c-30 6
-87 18 -127 27 -271 58 -655 58 -926 0 -40 -9 -97 -21 -127 -27 l-56 -11 -71
46 c-206 132 -489 235 -604 219z"/>
</g>
</svg>
