<?xml version="1.0" standalone="no"?>
<!DOCTYPE svg PUBLIC "-//W3C//DTD SVG 20010904//EN"
 "http://www.w3.org/TR/2001/REC-SVG-20010904/DTD/svg10.dtd">
<svg version="1.0" xmlns="http://www.w3.org/2000/svg"
 width="57.000000pt" height="48.000000pt" viewBox="0 0 57.000000 48.000000"
 preserveAspectRatio="xMidYMid meet">

<g transform="translate(0.000000,48.000000) scale(0.100000,-0.100000)"
fill="#000000" stroke="none">
<path d="M26 426 c-9 -30 -16 -79 -16 -109 0 -45 5 -61 26 -86 35 -41 64 -40
115 7 l42 37 -6 -45 c-19 -131 -19 -146 -4 -183 16 -38 34 -46 55 -25 17 17
15 25 -8 31 -17 4 -20 14 -20 59 0 29 7 93 16 142 l17 89 13 -39 c17 -51 44
-71 161 -119 112 -46 125 -64 63 -89 -45 -18 -90 -21 -90 -6 0 6 -7 10 -15 10
-9 0 -15 -9 -15 -25 0 -26 11 -30 75 -26 71 4 137 56 122 95 -7 16 -77 52
-160 82 -102 36 -135 102 -74 147 53 40 77 49 141 54 34 2 65 8 70 13 16 16
-6 30 -49 30 -62 0 -149 -35 -196 -79 l-39 -38 0 49 c0 26 -4 48 -8 48 -17 0
-32 -25 -32 -54 0 -37 -28 -85 -72 -126 -39 -35 -58 -37 -83 -10 -18 20 -18
55 1 178 10 61 -11 53 -30 -12z"/>
</g>
</svg>
